<svg width="258" height="110" viewBox="0 0 258 110" fill="none" xmlns="http://www.w3.org/2000/svg">
<path d="M78.6939 11.132H78.6364L76.5682 22.8378H74.2701L77.8895 4.41836L83.9794 18.362L90.0693 4.41836L93.6887 22.8378H91.4481L89.3798 11.132H89.3224L83.9794 23.2394L78.6939 11.132Z" fill="#264984"/>
<path d="M115.29 14.001C115.29 19.2801 111.154 23.2394 105.983 23.2394C100.87 23.2394 96.6762 19.2801 96.6762 14.001C96.6762 8.95149 100.87 4.76265 105.983 4.76265C111.097 4.76265 115.29 8.8941 115.29 14.001ZM113.05 14.001C113.05 10.0991 110.12 6.82838 105.983 6.82838C101.847 6.82838 98.9168 10.0991 98.9168 14.001C98.9168 18.0177 102.134 21.1737 105.983 21.1737C109.833 21.1737 113.05 18.0177 113.05 14.001Z" fill="#264984"/>
<path d="M133.1 8.54982C131.837 7.40219 130.113 6.82838 128.447 6.82838C124.483 6.82838 121.438 10.1565 121.438 14.0584C121.438 17.9604 124.425 21.2311 128.389 21.2311C130.113 21.2311 131.779 20.5999 133.1 19.3949V21.977C131.722 22.7804 129.998 23.2394 128.447 23.2394C123.391 23.2394 119.197 19.2227 119.197 14.1158C119.197 8.89411 123.391 4.82003 128.619 4.82003C130.17 4.82003 131.722 5.2217 133.1 6.02504V8.54982Z" fill="#264984"/>
<path d="M147.521 5.16432H150.393L142.465 13.0829L150.566 22.8378H147.578L140.914 14.6322L139.995 15.4356V22.8378H137.811V5.16432H139.995V12.796L147.521 5.16432Z" fill="#264984"/>
<path d="M170.444 14.001C170.444 19.2801 166.307 23.2394 161.137 23.2394C156.024 23.2394 151.83 19.2801 151.83 14.001C151.83 8.95149 156.024 4.76265 161.137 4.76265C166.25 4.76265 170.444 8.8941 170.444 14.001ZM168.261 14.001C168.261 10.0991 165.331 6.82838 161.194 6.82838C157.058 6.82838 154.128 10.0991 154.128 14.001C154.128 18.0177 157.345 21.1737 161.194 21.1737C164.986 21.1737 168.261 18.0177 168.261 14.001Z" fill="#264984"/>
<path d="M174.925 5.16432H177.108C180.44 5.16432 183.6 6.02504 183.6 10.0417C183.6 11.3615 182.911 12.8534 181.704 13.4272V13.4846C183.773 13.8863 185.266 15.8946 185.266 17.9604C185.266 21.518 182.221 22.8951 179.119 22.8951H174.983V5.16432H174.925ZM177.166 12.9682H177.74C179.808 12.9682 181.532 12.5665 181.532 9.98435C181.532 7.51695 179.866 7.0579 177.798 7.0579H177.166V12.9682ZM178.832 20.8868C180.9 20.8868 183.026 20.2556 183.026 17.7882C183.026 15.3208 180.498 14.8044 178.487 14.8044H177.108V20.8868H178.832Z" fill="#264984"/>
<path d="M203.019 8.54982C201.755 7.40219 200.031 6.82838 198.365 6.82838C194.401 6.82838 191.356 10.1565 191.356 14.0584C191.356 17.9604 194.344 21.2311 198.308 21.2311C200.031 21.2311 201.698 20.5999 203.019 19.3949V21.977C201.64 22.7804 199.917 23.2394 198.365 23.2394C193.31 23.2394 189.116 19.2227 189.116 14.1158C189.116 8.89411 193.31 4.82003 198.538 4.82003C200.089 4.82003 201.64 5.2217 203.019 6.02504V8.54982Z" fill="#264984"/>
<path d="M217.439 5.16432H220.312L212.326 13.0829L220.427 22.8378H217.439L210.775 14.6322L209.913 15.4356V22.8378H207.672V5.16432H209.913V12.796L217.439 5.16432Z" fill="#264984"/>
<path d="M235.077 22.8378V10.2139L224.333 23.5837V5.16432H226.574V17.4439L237.317 4.3036V22.8378H235.077Z" fill="#264984"/>
<path d="M253.461 22.8378V10.2139L242.718 23.5263V5.10694H244.901V17.4439L255.644 4.24622V22.7804H253.461V22.8378ZM253.691 0.344288C253.289 2.00835 251.565 3.50026 249.44 3.50026C247.371 3.50026 245.705 2.18049 245.246 0.401669L246.912 0C247.429 1.14763 248.118 1.89358 249.44 1.89358C250.761 1.89358 251.508 1.20501 252.025 0L253.691 0.344288Z" fill="#264984"/>
<path d="M77.8321 37.011V52.6761H75.6489V34.9452H84.7263V37.011H77.8321Z" fill="#264984"/>
<path d="M95.4697 52.6761H93.2291L96.3889 46.4215L90.4714 34.9452H92.8844L97.538 44.1836L102.249 34.9452H104.662L95.4697 52.6761Z" fill="#264984"/>
<path d="M113.28 42.5769H115.061C118.68 42.5769 121.38 44.1262 121.38 47.7413C121.38 51.2989 118.335 52.6761 115.233 52.6761H111.097V34.9452H119.657V36.9536H113.337V42.5769H113.28ZM114.946 50.7251C117.014 50.7251 119.14 50.0939 119.14 47.6265C119.14 45.1591 116.612 44.6427 114.601 44.6427H113.222V50.7251H114.946Z" fill="#264984"/>
<path d="M128.389 34.9452H137.926V37.011H130.63V41.9457H137.697V43.9541H130.63V50.6677H137.926V52.6761H128.389V34.9452Z" fill="#264984"/>
<path d="M147.463 52.6761H145.28V34.9452H147.808C153.266 34.9452 154.932 36.8388 154.932 40.0522C154.932 43.782 152.059 45.2165 148.727 45.2165H147.463V52.6761ZM147.463 43.2655H148.153C150.393 43.2655 152.864 42.8638 152.864 40.0522C152.864 37.2979 150.221 36.9536 148.038 36.9536H147.463V43.2655Z" fill="#264984"/>
<path d="M172.34 42.1179V34.9452H174.58V52.6761H172.34V44.1836H163.894V52.6761H161.711V34.9452H163.894V42.1179H172.34Z" fill="#264984"/>
<path d="M195.665 38.3307C194.401 37.1831 192.678 36.6093 191.012 36.6093C187.047 36.6093 184.002 39.9374 184.002 43.8393C184.002 47.7413 186.99 51.012 190.954 51.012C192.678 51.012 194.344 50.3808 195.665 49.1758V51.758C194.286 52.5613 192.563 53.0203 191.012 53.0203C185.956 53.0203 181.762 49.0037 181.762 43.8967C181.762 38.675 185.956 34.6009 191.184 34.6009C192.735 34.6009 194.286 35.0026 195.665 35.806V38.3307Z" fill="#264984"/>
<path d="M212.613 34.9452H215.486L207.5 42.9212L215.658 52.6761H212.671L205.949 44.4131L205.087 45.2739V52.6761H202.847V34.9452H205.087V42.6343L212.613 34.9452Z" fill="#264984"/>
<path d="M232.836 52.6761V40.0522L222.093 53.422V34.9452H224.333V47.2822L235.019 34.1419V52.6761H232.836Z" fill="#264984"/>
<path d="M253.749 52.6761V40.0522L243.063 53.3646V34.9452H245.246V47.2822L255.989 34.0845V52.6187H253.749V52.6761ZM254.036 30.1826C253.634 31.8466 251.91 33.3386 249.784 33.3386C247.716 33.3386 246.05 32.0188 245.59 30.24L247.257 29.8383C247.774 30.9859 248.463 31.7319 249.784 31.7319C251.106 31.7319 251.853 31.0433 252.37 29.8383L254.036 30.1826Z" fill="#264984"/>
<path d="M90.2416 109.77H87.369V67.5952H75.7638V64.8983H101.847V67.5952H90.2416V109.77Z" fill="#264984"/>
<path d="M119.197 67.5952V83.8915H137.352V86.5884H119.197V107.074H137.811V109.77H116.382V64.8983H137.811V67.5952H119.197Z" fill="#264984"/>
<path d="M160.792 95.0235L154.76 109.77H151.83L170.674 63.4637L189.46 109.77H186.53L180.498 95.0235H160.792ZM170.674 70.6938L161.884 92.3266H179.464L170.674 70.6938Z" fill="#264984"/>
<path d="M210.2 109.77H207.328V67.5952H195.723V64.8983H221.806V67.5952H210.2V109.77Z" fill="#264984"/>
<path d="M239.213 109.77H236.341V64.8983H244.269C247.774 64.8983 251.163 65.1278 253.978 67.5378C256.736 69.8331 258 73.276 258 76.7762C258 79.9896 256.736 83.5472 254.266 85.6129C251.508 87.9656 247.774 88.482 244.269 88.482H239.213V109.77ZM244.384 85.7851C247.314 85.7851 249.899 85.4408 252.255 83.3177C254.208 81.5389 255.185 79.1862 255.185 76.6041C255.185 73.7924 254.036 71.0381 251.795 69.374C249.555 67.6526 246.682 67.5952 243.924 67.5952H239.213V85.7851H244.384Z" fill="#264984"/>
<path d="M1.01944 4.47574C0.617278 4.47574 0.272569 4.70527 0.100215 5.04956C-0.0721399 5.39384 -0.0146884 5.8529 0.215118 6.1398L7.97107 16.1242C5.4432 16.8127 3.60476 19.108 3.60476 21.8623C3.60476 24.9035 5.90282 27.4283 8.89029 27.7726C8.83284 28.1742 8.77539 28.5185 8.77539 28.9202C8.77539 30.0678 9.06265 31.1581 9.57971 32.1909C6.47733 35.9207 4.40908 40.626 4.00692 45.8477C3.2026 56.4058 9.235 65.8738 18.3698 69.9478C16.8761 71.2676 15.8994 73.2186 15.8994 75.3991C15.8994 78.0386 17.3357 80.3339 19.4039 81.5962C17.4506 82.5717 16.0717 84.5801 16.0717 86.9327C16.0717 89.8592 18.1974 92.3265 21.0126 92.7856V110H25.3789V97.6056C25.3789 95.7694 26.2406 94.2775 27.2748 94.2775C28.3089 94.2775 29.1707 95.7694 29.1707 97.6056V110H34.9158V97.6056C34.9158 95.7694 35.95 94.2775 37.2713 94.2775C38.5927 94.2775 39.6268 95.7694 39.6268 97.6056V110H46.9806V97.6056C46.9806 95.7694 48.4744 94.2775 50.3128 94.2775C52.1513 94.2775 53.645 95.7694 53.645 97.6056V110H60.769V4.53312L1.01944 4.47574ZM57.8964 38.3881H57.839C55.3686 34.0271 51.8066 30.4121 47.4977 27.8873H57.8964V38.3881ZM6.36243 8.03339H57.8964V10.2713H19.289L20.2657 15.2061H11.8203L6.36243 8.03339ZM9.57971 22.2066C8.48813 22.2066 7.62636 21.3459 7.62636 20.2556C7.62636 19.1654 8.48813 18.3046 9.57971 18.3046H57.8964V22.264L9.57971 22.2066ZM11.2458 41.085C15.7845 30.24 28.3664 25.0756 39.2247 29.6088C47.8424 33.2238 53.8748 39.1341 57.8964 48.2003V66.6197C54.4493 44.2984 45.7167 37.5848 37.3288 34.0845C28.9409 30.5842 19.2316 34.5436 15.727 42.9212C13.0268 49.4053 16.0717 56.8649 22.5638 59.5618C27.5046 61.6275 33.1923 59.2749 35.2605 54.3401C36.0074 52.5613 36.0074 50.5529 35.2605 48.7741C34.9733 48.1429 34.6286 47.5691 34.2264 47.0527C33.537 45.9051 32.388 45.0443 30.9517 44.7574C30.8942 44.7574 30.8942 44.7574 30.8368 44.7574C30.6644 44.7001 30.4921 44.7001 30.3197 44.6427C27.6195 44.4131 25.2065 46.4789 25.0342 49.1758C24.9193 50.6103 25.4363 51.9875 26.413 52.963C25.4938 53.2499 24.4022 52.963 23.7702 52.1022C21.6445 49.3479 21.5871 45.9624 23.6553 43.2655C25.9534 40.2817 30.0899 39.0193 33.2497 40.3391C36.2372 41.6015 38.5927 43.8967 39.7992 46.9379C41.0057 49.9218 41.0057 53.2499 39.7417 56.2337C38.248 59.7913 35.4329 62.603 31.8134 64.0949C28.194 65.5869 24.2298 65.5295 20.6679 64.0376C11.7629 60.3652 7.51146 50.0365 11.2458 41.085ZM42.0973 73.1612C42.3845 74.3088 42.6718 76.0876 42.0973 77.4648C41.178 79.5879 38.1331 80.1043 36.0074 80.1617H35.1456C34.2839 80.1617 33.7093 80.047 33.7093 80.047C33.7093 80.047 34.686 79.9322 35.3754 78.9567C36.0074 77.9238 35.4329 76.6041 36.6394 75.0548C37.8458 73.5055 39.9716 73.5629 40.2588 73.0464C40.3163 72.9317 40.3163 72.8169 40.3737 72.7595C39.9716 72.7021 39.5694 72.6448 39.1098 72.6448C35.4903 72.6448 31.9283 76.3745 30.0324 77.9238C27.045 80.2765 24.2298 80.1043 22.4488 78.4403C20.2082 76.3745 21.8743 73.9645 21.8743 73.9645C22.2765 73.2186 23.0808 72.7021 24 72.7021C25.3214 72.7021 26.4705 73.7924 26.4705 75.1695C26.4705 76.2598 25.781 77.1779 24.8044 77.4648C26.1257 78.096 28.3664 77.2353 29.5728 75.8007C31.124 73.9072 34.686 69.3166 39.7417 69.2019C44.2804 69.0871 48.934 72.7021 49.9107 75.7433C50.8873 73.0464 50.9448 67.5378 50.2554 67.5378C49.8532 67.5378 47.4977 68.9724 45.7167 68.169C43.7059 67.2509 41.5227 64.8983 41.5227 64.8983C41.5227 64.8983 42.6718 63.4064 44.74 62.9473C47.5552 62.3161 48.8765 63.5211 49.1638 63.2916C49.566 63.0621 47.153 62.0292 46.2338 60.9964C44.5677 59.1602 45.0273 56.4632 45.0273 56.4632L48.5318 57.6682C48.5318 57.6682 46.9806 55.2008 46.521 53.1351C46.0614 51.1268 46.8083 48.602 46.8083 48.602C46.8083 48.602 52.0364 57.037 53.3578 68.9724C54.1046 75.8581 53.1854 79.0141 52.5534 80.2765H44.223C44.7975 79.7027 45.1996 78.8993 45.1996 77.8665C45.1996 75.9155 44.1655 74.0793 42.0973 73.1612ZM57.8964 87.6213H21.702C20.6104 87.6213 19.7486 86.7606 19.7486 85.6703C19.7486 84.5801 20.6104 83.7194 21.702 83.7194H57.8964V87.6213Z" fill="#264984"/>
</svg>
